<?xml version="1.0" encoding="utf-8"?>
<!-- Generator: Adobe Illustrator 16.0.0, SVG Export Plug-In . SVG Version: 6.00 Build 0)  -->
<!DOCTYPE svg PUBLIC "-//W3C//DTD SVG 1.1//EN" "http://www.w3.org/Graphics/SVG/1.1/DTD/svg11.dtd">
<svg version="1.1" id="Layer_1" xmlns="http://www.w3.org/2000/svg" xmlns:xlink="http://www.w3.org/1999/xlink" x="0px" y="0px"
	 width="620px" height="128px" viewBox="0 0 620 128" enable-background="new 0 0 620 128" xml:space="preserve">
<text transform="matrix(1 0 0 1 53.5259 55.2363)" font-family="'DIN-Regular'" font-size="26">B</text>
<text transform="matrix(1 0 0 1 29.5283 70.7324)" font-family="'DIN-Regular'" font-size="26">L</text>
<text transform="matrix(1 0 0 1 73.52 84.2266)" font-family="'DIN-Regular'" font-size="26">K</text>
<text transform="matrix(1 0 0 1 45.5181 100.7363)" font-family="'DIN-Regular'" font-size="26">M</text>
<g>
	<g>
		<defs>
			<rect id="SVGID_1_" x="13.333" y="12.307" width="657.863" height="102.693"/>
		</defs>
		<clipPath id="SVGID_2_">
			<use xlink:href="#SVGID_1_"  overflow="visible"/>
		</clipPath>
		<rect x="13.833" y="21.808" clip-path="url(#SVGID_2_)" fill="none" stroke="#000000" width="92.693" height="92.692"/>
	</g>
</g>
<text transform="matrix(1 0 0 1 141.6611 76.5938)" font-family="'DIN-Bold'" font-size="58.8" letter-spacing="1">FINAL PR</text>
<text transform="matrix(1 0 0 1 413.958 76.5938)" font-family="'DIN-Bold'" font-size="58.8">O</text>
<text transform="matrix(1 0 0 1 451.7656 76.5938)" font-family="'DIN-Bold'" font-size="58.8" letter-spacing="1">JE</text>
<text transform="matrix(1 0 0 1 521.2656 76.5938)" font-family="'DIN-Bold'" font-size="58.8">C</text>
<text transform="matrix(1 0 0 1 560.4863 76.5938)" font-family="'DIN-Bold'" font-size="58.8">T</text>
<text transform="matrix(1 0 0 1 146.6611 106.5938)" font-family="'DIN-Light'" font-size="14.5">C</text>
<text transform="matrix(1 0 0 1 156.709 106.5938)" font-family="'DIN-Light'" font-size="14.5">OMP 1950 |  INTER</text>
<text transform="matrix(1 0 0 1 277.9741 106.5938)" font-family="'DIN-Light'" font-size="14.5">M</text>
<text transform="matrix(1 0 0 1 290.5459 106.5938)" font-family="'DIN-Light'" font-size="14.5">E</text>
<text transform="matrix(1 0 0 1 299.9419 106.5938)" font-family="'DIN-Light'" font-size="14.5">D</text>
<text transform="matrix(1 0 0 1 310.4829 106.5938)" font-family="'DIN-Light'" font-size="14.5">I</text>
<text transform="matrix(1 0 0 1 315.1816 106.5938)" font-family="'DIN-Light'" font-size="14.5">A  </text>
<text transform="matrix(1 0 0 1 323.7656 106.5938)" font-family="'DIN-Light'" font-size="14.5">TE  </text>
<text transform="matrix(1 0 0 1 387.3291 106.5938)" font-family="'DIN-Light'" font-size="14.5">D</text>
<text transform="matrix(1 0 0 1 397.8711 106.5938)" font-family="'DIN-Light'" font-size="14.5">ESIG</text>
<text transform="matrix(1 0 0 1 429.3662 106.5938)" font-family="'DIN-Light'" font-size="14.5">N</text>
<text transform="matrix(1 0 0 1 445.791 106.5938)" font-family="'DIN-Light'" font-size="14.5"> A</text>
<text transform="matrix(1 0 0 1 457.667 106.5938)" font-family="'DIN-Light'" font-size="14.5">ND</text>
<text transform="matrix(1 0 0 1 481.6348 106.5938)" font-family="'DIN-Light'" font-size="14.5"> </text>
<text transform="matrix(1 0 0 1 486.0566 106.5938)" font-family="'DIN-Light'" font-size="14.5">D</text>
<text transform="matrix(1 0 0 1 496.5996 106.5938)" font-family="'DIN-Light'" font-size="14.5">E</text>
<text transform="matrix(1 0 0 1 505.9941 106.5938)" font-family="'DIN-Light'" font-size="14.5">V</text>
<text transform="matrix(1 0 0 1 514.4492 106.5938)" font-family="'DIN-Light'" font-size="14.5">E</text>
<text transform="matrix(1 0 0 1 523.8438 106.5938)" font-family="'DIN-Light'" font-size="14.5">L</text>
<text transform="matrix(1 0 0 1 532.2832 106.5938)" font-family="'DIN-Light'" font-size="14.5">OPM</text>
<text transform="matrix(1 0 0 1 564.8779 106.5938)" font-family="'DIN-Light'" font-size="14.5">E</text>
<text transform="matrix(1 0 0 1 574.2754 106.5938)" font-family="'DIN-Light'" font-size="14.5">N</text>
<text transform="matrix(1 0 0 1 585.7012 106.5938)" font-family="'DIN-Light'" font-size="14.5">T</text>
<text transform="matrix(1 0 0 1 352.7656 106.5938)" font-family="'DIN-Light'" font-size="14.5">WEB </text>
</svg>
